<svg width="434" height="104" viewBox="0 0 434 104" fill="none" xmlns="http://www.w3.org/2000/svg">
<path d="M43.6429 2.00774H54.295V55H54.2184L49.4288 55.9579L48.969 33.8108L48.5475 56.1495L47.5129 56.3411L43.6813 57.1074V46.4936V23.1587L33.0675 44.3862H28.0096H27.9713L33.0675 33.8108L27.7797 44.0031L22.492 33.8108L27.5498 44.3862H22.4537L11.9166 23.2353L11.8782 52.8543V63.468L10.6521 63.7363L7.16526 64.426L6.51387 33.8108L5.93912 64.6559L1.26446 65.6138V55L1.30277 44.3862V2.00774H11.9166L27.7797 33.8108L43.6429 2.00774ZM67.5144 44.3862H88.6653L88.7036 55H63.1462L62.7248 33.8108L62.3033 55H56.9006V2.00774H88.6653L88.7036 12.5832H67.5144V21.4344L78.0898 17.9092L78.1281 28.4847L67.5144 32.0482V44.3862ZM123.112 33.8108L113.993 36.8378L123.112 55H118.016L107.211 33.8108L117.173 55H112.498L104.912 39.8648L101.923 40.8611V55H97.0567L96.5969 33.8108L96.2137 55H91.3475V44.3862H91.3092V33.8108V33.7724V12.5832V2.00774H123.074L123.112 12.5832V33.8108ZM101.923 29.6342L112.498 26.4922V12.5832H101.923V29.6342ZM136.332 44.3862H157.482L157.521 55H131.963L131.542 33.8108L131.12 55H125.718V2.00774H157.482L157.521 12.5832H136.332V44.3862ZM181.316 2.00774H191.929V55H186.948L186.488 33.8108L186.105 55H181.316L181.354 44.3862L181.316 26.7221L170.74 30.2473V55H165.759L165.337 33.8108L164.916 55H160.126L160.165 44.3862V33.7724L160.126 33.8108V23.197H160.165V2.00774H170.778L170.74 19.6335L181.316 16.1084V2.00774ZM215.724 2.00774H226.338V49.7123L221.433 54.6168L220.974 33.8108L220.59 55.4598L210.436 65.6138L200.053 55.2299L199.593 33.8108L199.21 54.3869L194.535 49.7123V2.00774H205.149V49.7123L210.436 55.0383L215.724 49.7123V2.00774ZM239.557 44.3862H260.708L260.746 55H235.189L234.768 33.8108L234.346 55H228.943V2.00774H260.708L260.746 12.5832H239.557V21.4344L250.133 17.9092L250.171 28.4847L239.557 32.0482V44.3862ZM284.465 2.00774H295.078L295.04 44.3096V55H290.097L289.944 48.0646L289.714 37.1443L289.637 33.8108L289.561 36.9911L289.369 47.3366L289.216 55H284.426L284.465 44.3862V40.7844L273.966 17.9092V55H268.985L268.525 33.8108L268.142 55H263.352V44.3862V12.6215V2.00774H273.966V7.29547L284.465 30.1707V2.00774ZM329.372 2.00774L329.41 12.5832L318.797 16.1467V55H313.815L313.394 33.8108L312.972 55H308.183L308.221 44.3862V19.6718L297.607 23.197V12.5832L308.183 9.05804V2.00774H318.797V5.53289L329.372 2.00774ZM363.819 12.5832H363.781L363.819 55H358.876L358.416 33.8108L358.033 55H337.878L337.419 33.8108L337.035 55H332.016V44.3862V12.5832V2.00774H363.781L363.819 12.5832ZM353.205 44.3862V12.5832H342.63V44.3862H353.205ZM398.227 33.8108L389.108 36.8378L398.227 55H393.131L382.326 33.8108L392.288 55H387.614L380.027 39.8648L377.038 40.8611V55H372.172L371.712 33.8108L371.329 55H366.463V44.3862H366.424V33.8108V33.7724V12.5832V2.00774H398.189L398.227 12.5832V33.8108ZM377.038 29.6342L387.614 26.4922V12.5832H377.038V29.6342ZM422.022 2.00774H432.636L432.444 55.115H427.578L427.118 33.351L426.697 55.115L400.833 55.1916V44.5778L422.022 44.3862V33.8108H400.833V23.197V2.00774H411.447V23.197H422.022V2.00774Z" fill="#E3B505"/>
</svg>
